<svg width="202" height="36" viewBox="0 0 202 36" fill="none" xmlns="http://www.w3.org/2000/svg">
<path fill-rule="evenodd" clip-rule="evenodd" d="M18 0C27.9411 0 36 8.05884 36 18C36 27.9411 27.9411 36 18 36C8.05886 36 0 27.9411 0 18C0 8.05884 8.05886 0 18 0ZM35.3091 18C35.3091 8.44045 27.5595 0.690842 18 0.690842C17.2289 0.690842 16.4696 0.741263 15.7251 0.83899C16.2061 0.796937 16.6929 0.775469 17.1847 0.775469C26.3194 0.775469 33.7245 8.18057 33.7245 17.3152C33.7245 26.4498 26.3194 33.8549 17.1847 33.8549C8.5367 33.8549 1.43884 27.2178 0.707209 18.7594C1.10466 27.9666 8.69483 35.3091 18 35.3091C27.5595 35.3091 35.3091 27.5595 35.3091 18ZM33.0336 17.3152C33.0336 8.56208 25.9379 1.46632 17.1847 1.46632C16.4741 1.46632 15.7742 1.5131 15.0883 1.60375C15.5106 1.56821 15.938 1.55008 16.3695 1.55008C24.6977 1.55008 31.449 8.30142 31.449 16.6295C31.449 24.9577 24.6977 31.709 16.3695 31.709C8.49505 31.709 2.0303 25.6732 1.34939 17.9756C1.69558 26.4224 8.6529 33.1641 17.1847 33.1641C25.9379 33.1641 33.0336 26.0683 33.0336 17.3152ZM16.3695 2.24093C24.3161 2.24093 30.7582 8.68293 30.7582 16.6295C30.7582 24.5761 24.3161 31.0181 16.3695 31.0181C8.60709 31.0181 2.28024 24.8711 1.99128 17.1793C2.61515 24.1219 8.44935 29.563 15.5544 29.563C23.0755 29.563 29.1727 23.4659 29.1727 15.9447C29.1727 8.4235 23.0755 2.32641 15.5544 2.32641C15.1653 2.32641 14.78 2.34274 14.3992 2.37472C15.0434 2.28651 15.7011 2.24093 16.3695 2.24093ZM28.4818 15.9447C28.4818 8.8051 22.694 3.01726 15.5544 3.01726C14.9512 3.01726 14.3575 3.05857 13.7763 3.13853C14.0937 3.11369 14.4145 3.10104 14.7383 3.10104C21.453 3.10104 26.8963 8.54434 26.8963 15.2591C26.8963 21.9737 21.453 27.4171 14.7383 27.4171C8.41825 27.4171 3.22453 22.5948 2.63583 16.429C2.89052 23.3443 8.5769 28.8722 15.5544 28.8722C22.694 28.8722 28.4818 23.0844 28.4818 15.9447ZM14.7383 3.79188C21.0714 3.79188 26.2054 8.92595 26.2054 15.2591C26.2054 21.5922 21.0714 26.7262 14.7383 26.7262C8.52988 26.7262 3.47385 21.7925 3.27705 15.6319C3.80857 21.0432 8.37209 25.2712 13.9231 25.2712C19.8313 25.2712 24.6208 20.4816 24.6208 14.5734C24.6208 8.66519 19.8313 3.87565 13.9231 3.87565C13.6521 3.87565 13.3835 3.88572 13.1177 3.90551C13.6471 3.83062 14.1881 3.79188 14.7383 3.79188ZM23.93 14.5734C23.93 9.0467 19.4497 4.5665 13.9231 4.5665C13.4186 4.5665 12.9228 4.60383 12.4384 4.67587C12.6595 4.66004 12.8828 4.65198 13.1079 4.65198C18.2091 4.65198 22.3445 8.78736 22.3445 13.8886C22.3445 18.9898 18.2091 23.1252 13.1079 23.1252C8.32777 23.1252 4.39574 19.4941 3.91966 14.8396C4.0608 20.2432 8.48546 24.5803 13.9231 24.5803C19.4497 24.5803 23.93 20.1 23.93 14.5734ZM13.1079 5.34283C17.8276 5.34283 21.6536 9.16887 21.6536 13.8886C21.6536 18.6083 17.8276 22.4343 13.1079 22.4343C8.44827 22.4343 4.65967 18.7051 4.56399 14.0684C4.99443 17.9558 8.2905 20.9792 12.2927 20.9792C16.5875 20.9792 20.069 17.4977 20.069 13.2029C20.069 8.9082 16.5875 5.42659 12.2927 5.42659C12.1285 5.42659 11.9654 5.43168 11.8037 5.44172C12.2289 5.3766 12.6645 5.34283 13.1079 5.34283ZM19.3782 13.2029C19.3782 9.28972 16.206 6.11744 12.2927 6.11744C11.8998 6.11744 11.5143 6.14943 11.1387 6.21095C11.2506 6.20505 11.3632 6.20207 11.4767 6.20207C14.9649 6.20207 17.7927 9.02984 17.7927 12.5181C17.7927 16.0064 14.9649 18.8342 11.4767 18.8342C8.2512 18.8342 5.59045 16.4164 5.20781 13.2944C5.2568 17.1655 8.41006 20.2884 12.2927 20.2884C16.206 20.2884 19.3782 17.1162 19.3782 13.2029ZM11.4767 6.89291C14.5833 6.89291 17.1018 9.41136 17.1018 12.5181C17.1018 15.6249 14.5833 18.1433 11.4767 18.1433C8.36991 18.1433 5.85141 15.6249 5.85141 12.5181C5.85141 12.5107 5.85143 12.5032 5.85146 12.4958C6.17491 14.8633 8.20515 16.6874 10.6615 16.6874C13.3427 16.6874 15.5164 14.5138 15.5164 11.8325C15.5164 9.15113 13.3427 6.97755 10.6615 6.97755C10.6008 6.97755 10.5404 6.97866 10.4803 6.98086C10.8037 6.92307 11.1366 6.89291 11.4767 6.89291ZM14.8255 11.8325C14.8255 9.53273 12.9612 7.66839 10.6615 7.66839C8.36169 7.66839 6.49737 9.53273 6.49737 11.8325C6.49737 14.1322 8.36169 15.9965 10.6615 15.9965C12.9612 15.9965 14.8255 14.1322 14.8255 11.8325Z" fill="#151515"/>
<path d="M55.5682 26.5H49.9176V9.04545H55.7472C57.4574 9.04545 58.9261 9.39489 60.1534 10.0938C61.3807 10.7869 62.321 11.7841 62.9744 13.0852C63.6335 14.3807 63.9631 15.9347 63.9631 17.7472C63.9631 19.5653 63.6307 21.1278 62.9659 22.4347C62.3068 23.7415 61.3523 24.7472 60.1023 25.4517C58.8523 26.1506 57.3409 26.5 55.5682 26.5ZM52.5511 24.1989H55.4233C56.7528 24.1989 57.858 23.9489 58.7386 23.4489C59.6193 22.9432 60.2784 22.2131 60.7159 21.2585C61.1534 20.2983 61.3722 19.1278 61.3722 17.7472C61.3722 16.3778 61.1534 15.2159 60.7159 14.2614C60.2841 13.3068 59.6392 12.5824 58.7812 12.0881C57.9233 11.5937 56.858 11.3466 55.5852 11.3466H52.5511V24.1989ZM70.123 26.7898C69.2935 26.7898 68.5435 26.6364 67.873 26.3295C67.2026 26.017 66.6713 25.5653 66.2793 24.9744C65.8929 24.3835 65.6997 23.6591 65.6997 22.8011C65.6997 22.0625 65.8418 21.4545 66.1259 20.9773C66.41 20.5 66.7935 20.1222 67.2764 19.8438C67.7594 19.5653 68.2992 19.3551 68.8958 19.2131C69.4924 19.071 70.1003 18.9631 70.7196 18.8892C71.5037 18.7983 72.1401 18.7244 72.6287 18.6676C73.1174 18.6051 73.4725 18.5057 73.6941 18.3693C73.9157 18.233 74.0264 18.0114 74.0264 17.7045V17.6449C74.0264 16.9006 73.8162 16.3239 73.3958 15.9148C72.981 15.5057 72.3617 15.3011 71.5378 15.3011C70.6799 15.3011 70.0037 15.4915 69.5094 15.8722C69.0208 16.2472 68.6827 16.6648 68.4952 17.125L66.1003 16.5795C66.3844 15.7841 66.7992 15.142 67.3446 14.6534C67.8958 14.1591 68.5293 13.8011 69.2452 13.5795C69.9611 13.3523 70.7139 13.2386 71.5037 13.2386C72.0264 13.2386 72.5804 13.3011 73.1657 13.4261C73.7566 13.5455 74.3077 13.767 74.8191 14.0909C75.3361 14.4148 75.7594 14.8778 76.0889 15.4801C76.4185 16.0767 76.5833 16.8523 76.5833 17.8068V26.5H74.0946V24.7102H73.9924C73.8276 25.0398 73.5804 25.3636 73.2509 25.6818C72.9213 26 72.498 26.2642 71.981 26.4744C71.4639 26.6847 70.8446 26.7898 70.123 26.7898ZM70.677 24.7443C71.3816 24.7443 71.9838 24.6051 72.4838 24.3267C72.9895 24.0483 73.373 23.6847 73.6344 23.2358C73.9014 22.7812 74.035 22.2955 74.035 21.7784V20.0909C73.9441 20.1818 73.7679 20.267 73.5066 20.3466C73.2509 20.4205 72.9583 20.4858 72.6287 20.5426C72.2992 20.5937 71.9782 20.642 71.6657 20.6875C71.3532 20.7273 71.0918 20.7614 70.8816 20.7898C70.3872 20.8523 69.9355 20.9574 69.5264 21.1051C69.123 21.2528 68.7992 21.4659 68.5549 21.7443C68.3162 22.017 68.1969 22.3807 68.1969 22.8352C68.1969 23.4659 68.4299 23.9432 68.8958 24.267C69.3617 24.5852 69.9554 24.7443 70.677 24.7443ZM80.3995 31.4091C80.0188 31.4091 79.6722 31.3778 79.3597 31.3153C79.0472 31.2585 78.8143 31.196 78.6609 31.1278L79.2745 29.0398C79.7404 29.1648 80.1552 29.2188 80.5188 29.2017C80.8824 29.1847 81.2035 29.0483 81.4819 28.7926C81.766 28.5369 82.016 28.1193 82.2319 27.5398L82.5472 26.6705L77.7574 13.4091H80.4847L83.8001 23.5682H83.9364L87.2518 13.4091H89.9876L84.5927 28.2472C84.3427 28.929 84.0245 29.5057 83.6381 29.9773C83.2518 30.4545 82.7915 30.8125 82.2574 31.0511C81.7234 31.2898 81.104 31.4091 80.3995 31.4091ZM91.867 26.5V9.04545H94.4153V15.5312H94.5687C94.7164 15.2585 94.9295 14.9432 95.2079 14.5852C95.4863 14.2273 95.8727 13.9148 96.367 13.6477C96.8613 13.375 97.5147 13.2386 98.3272 13.2386C99.384 13.2386 100.327 13.5057 101.157 14.0398C101.986 14.5739 102.637 15.3437 103.108 16.3494C103.586 17.3551 103.824 18.5653 103.824 19.9801C103.824 21.3949 103.589 22.608 103.117 23.6193C102.645 24.625 101.998 25.4006 101.174 25.946C100.35 26.4858 99.4096 26.7557 98.3528 26.7557C97.5573 26.7557 96.9068 26.6222 96.4011 26.3551C95.9011 26.0881 95.509 25.7756 95.2249 25.4176C94.9409 25.0597 94.7221 24.7415 94.5687 24.4631H94.3556V26.5H91.867ZM94.3641 19.9545C94.3641 20.875 94.4977 21.6818 94.7647 22.375C95.0318 23.0682 95.4181 23.6108 95.9238 24.0028C96.4295 24.3892 97.0488 24.5824 97.7818 24.5824C98.5431 24.5824 99.1795 24.3807 99.6909 23.9773C100.202 23.5682 100.589 23.0142 100.85 22.3153C101.117 21.6165 101.251 20.8295 101.251 19.9545C101.251 19.0909 101.12 18.3153 100.858 17.6278C100.603 16.9403 100.216 16.3977 99.6994 16C99.188 15.6023 98.5488 15.4034 97.7818 15.4034C97.0431 15.4034 96.4181 15.5937 95.9068 15.9744C95.4011 16.3551 95.0176 16.8864 94.7562 17.5682C94.4948 18.25 94.3641 19.0455 94.3641 19.9545ZM105.966 26.5V13.4091H108.429V15.4886H108.565C108.804 14.7841 109.224 14.2301 109.827 13.8267C110.435 13.4176 111.122 13.2131 111.889 13.2131C112.048 13.2131 112.236 13.2187 112.452 13.2301C112.673 13.2415 112.847 13.2557 112.972 13.2727V15.7102C112.869 15.6818 112.687 15.6506 112.426 15.6165C112.165 15.5767 111.903 15.5568 111.642 15.5568C111.04 15.5568 110.503 15.6847 110.031 15.9403C109.565 16.1903 109.196 16.5398 108.923 16.9886C108.651 17.4318 108.514 17.9375 108.514 18.5057V26.5H105.966ZM114.457 26.5V13.4091H117.005V26.5H114.457ZM115.744 11.3892C115.301 11.3892 114.92 11.2415 114.602 10.946C114.289 10.6449 114.133 10.2869 114.133 9.87216C114.133 9.4517 114.289 9.09375 114.602 8.79829C114.92 8.49716 115.301 8.34659 115.744 8.34659C116.187 8.34659 116.565 8.49716 116.877 8.79829C117.195 9.09375 117.355 9.4517 117.355 9.87216C117.355 10.2869 117.195 10.6449 116.877 10.946C116.565 11.2415 116.187 11.3892 115.744 11.3892ZM124.614 26.7557C123.557 26.7557 122.614 26.4858 121.784 25.946C120.961 25.4006 120.313 24.625 119.841 23.6193C119.375 22.608 119.142 21.3949 119.142 19.9801C119.142 18.5653 119.378 17.3551 119.85 16.3494C120.327 15.3437 120.98 14.5739 121.81 14.0398C122.64 13.5057 123.58 13.2386 124.631 13.2386C125.443 13.2386 126.097 13.375 126.591 13.6477C127.091 13.9148 127.478 14.2273 127.75 14.5852C128.029 14.9432 128.245 15.2585 128.398 15.5312H128.551V9.04545H131.1V26.5H128.611V24.4631H128.398C128.245 24.7415 128.023 25.0597 127.733 25.4176C127.449 25.7756 127.057 26.0881 126.557 26.3551C126.057 26.6222 125.409 26.7557 124.614 26.7557ZM125.176 24.5824C125.909 24.5824 126.529 24.3892 127.034 24.0028C127.546 23.6108 127.932 23.0682 128.193 22.375C128.461 21.6818 128.594 20.875 128.594 19.9545C128.594 19.0455 128.463 18.25 128.202 17.5682C127.941 16.8864 127.557 16.3551 127.051 15.9744C126.546 15.5937 125.921 15.4034 125.176 15.4034C124.409 15.4034 123.77 15.6023 123.259 16C122.747 16.3977 122.361 16.9403 122.1 17.6278C121.844 18.3153 121.716 19.0909 121.716 19.9545C121.716 20.8295 121.847 21.6165 122.108 22.3153C122.37 23.0142 122.756 23.5682 123.267 23.9773C123.784 24.3807 124.421 24.5824 125.176 24.5824ZM139.505 31.6818C138.466 31.6818 137.571 31.5455 136.821 31.2727C136.076 31 135.469 30.6392 134.997 30.1903C134.525 29.7415 134.173 29.25 133.94 28.7159L136.13 27.8125C136.284 28.0625 136.488 28.3267 136.744 28.6051C137.005 28.8892 137.358 29.1307 137.801 29.3295C138.25 29.5284 138.826 29.6278 139.531 29.6278C140.497 29.6278 141.295 29.392 141.926 28.9205C142.557 28.4545 142.872 27.7102 142.872 26.6875V24.1136H142.71C142.557 24.392 142.335 24.7017 142.045 25.0426C141.761 25.3835 141.369 25.679 140.869 25.929C140.369 26.179 139.719 26.304 138.917 26.304C137.883 26.304 136.951 26.0625 136.122 25.5795C135.298 25.0909 134.645 24.3722 134.162 23.4233C133.684 22.4687 133.446 21.2955 133.446 19.9034C133.446 18.5114 133.682 17.3182 134.153 16.3239C134.63 15.3295 135.284 14.5682 136.113 14.0398C136.943 13.5057 137.883 13.2386 138.934 13.2386C139.747 13.2386 140.403 13.375 140.903 13.6477C141.403 13.9148 141.792 14.2273 142.071 14.5852C142.355 14.9432 142.574 15.2585 142.727 15.5312H142.915V13.4091H145.412V26.7898C145.412 27.9148 145.15 28.8381 144.628 29.5597C144.105 30.2813 143.397 30.8153 142.505 31.1619C141.619 31.5085 140.619 31.6818 139.505 31.6818ZM139.48 24.1903C140.213 24.1903 140.832 24.0199 141.338 23.679C141.849 23.3324 142.236 22.8381 142.497 22.196C142.764 21.5483 142.897 20.7727 142.897 19.8693C142.897 18.9886 142.767 18.2131 142.505 17.5426C142.244 16.8722 141.861 16.3494 141.355 15.9744C140.849 15.5937 140.224 15.4034 139.48 15.4034C138.713 15.4034 138.074 15.6023 137.562 16C137.051 16.392 136.665 16.9261 136.403 17.6023C136.147 18.2784 136.02 19.0341 136.02 19.8693C136.02 20.7273 136.15 21.4801 136.412 22.1278C136.673 22.7756 137.059 23.2812 137.571 23.6449C138.088 24.0085 138.724 24.1903 139.48 24.1903ZM153.751 26.7642C152.462 26.7642 151.351 26.4886 150.419 25.9375C149.493 25.3807 148.777 24.5994 148.271 23.5938C147.771 22.5824 147.521 21.3977 147.521 20.0398C147.521 18.6989 147.771 17.517 148.271 16.4943C148.777 15.4716 149.481 14.6733 150.385 14.0994C151.294 13.5256 152.356 13.2386 153.572 13.2386C154.311 13.2386 155.027 13.3608 155.72 13.6051C156.413 13.8494 157.035 14.233 157.587 14.7557C158.138 15.2784 158.572 15.9574 158.891 16.7926C159.209 17.6222 159.368 18.6307 159.368 19.8182V20.7216H148.962V18.8125H156.871C156.871 18.142 156.734 17.5483 156.462 17.0312C156.189 16.5085 155.805 16.0966 155.311 15.7955C154.822 15.4943 154.249 15.3438 153.589 15.3438C152.874 15.3438 152.249 15.5199 151.714 15.8722C151.186 16.2187 150.777 16.6733 150.487 17.2358C150.203 17.7926 150.061 18.3977 150.061 19.0511V20.5426C150.061 21.4176 150.214 22.1619 150.521 22.7756C150.834 23.3892 151.268 23.858 151.825 24.1818C152.382 24.5 153.033 24.6591 153.777 24.6591C154.26 24.6591 154.7 24.5909 155.098 24.4545C155.496 24.3125 155.839 24.1023 156.129 23.8239C156.419 23.5455 156.641 23.2017 156.794 22.7926L159.206 23.2273C159.013 23.9375 158.666 24.5597 158.166 25.0938C157.672 25.6222 157.05 26.0341 156.3 26.3295C155.555 26.6193 154.706 26.7642 153.751 26.7642Z" fill="#151515"/>
</svg>
