<svg width="36" height="36" viewBox="0 0 36 36" fill="none" xmlns="http://www.w3.org/2000/svg">
<path id="Vector" fill-rule="evenodd" clip-rule="evenodd" d="M18 0C27.9411 0 36 8.05884 36 18C36 27.9411 27.9411 36 18 36C8.05886 36 0 27.9411 0 18C0 8.05884 8.05886 0 18 0ZM35.3091 18C35.3091 8.44045 27.5595 0.690842 18 0.690842C17.2289 0.690842 16.4696 0.741263 15.7251 0.83899C16.2061 0.796937 16.6929 0.775469 17.1847 0.775469C26.3194 0.775469 33.7245 8.18057 33.7245 17.3152C33.7245 26.4498 26.3194 33.8549 17.1847 33.8549C8.5367 33.8549 1.43884 27.2178 0.707209 18.7594C1.10466 27.9666 8.69483 35.3091 18 35.3091C27.5595 35.3091 35.3091 27.5595 35.3091 18ZM33.0336 17.3152C33.0336 8.56208 25.9379 1.46632 17.1847 1.46632C16.4741 1.46632 15.7742 1.5131 15.0883 1.60375C15.5106 1.56821 15.938 1.55008 16.3695 1.55008C24.6977 1.55008 31.449 8.30142 31.449 16.6295C31.449 24.9577 24.6977 31.709 16.3695 31.709C8.49505 31.709 2.0303 25.6732 1.34939 17.9756C1.69558 26.4224 8.6529 33.1641 17.1847 33.1641C25.9379 33.1641 33.0336 26.0683 33.0336 17.3152ZM16.3695 2.24093C24.3161 2.24093 30.7582 8.68293 30.7582 16.6295C30.7582 24.5761 24.3161 31.0181 16.3695 31.0181C8.60709 31.0181 2.28024 24.8711 1.99128 17.1793C2.61515 24.1219 8.44935 29.563 15.5544 29.563C23.0755 29.563 29.1727 23.4659 29.1727 15.9447C29.1727 8.4235 23.0755 2.32641 15.5544 2.32641C15.1653 2.32641 14.78 2.34274 14.3992 2.37472C15.0434 2.28651 15.7011 2.24093 16.3695 2.24093ZM28.4818 15.9447C28.4818 8.8051 22.694 3.01726 15.5544 3.01726C14.9512 3.01726 14.3575 3.05857 13.7763 3.13853C14.0937 3.11369 14.4145 3.10104 14.7383 3.10104C21.453 3.10104 26.8963 8.54434 26.8963 15.2591C26.8963 21.9737 21.453 27.4171 14.7383 27.4171C8.41825 27.4171 3.22453 22.5948 2.63583 16.429C2.89052 23.3443 8.5769 28.8722 15.5544 28.8722C22.694 28.8722 28.4818 23.0844 28.4818 15.9447ZM14.7383 3.79188C21.0714 3.79188 26.2054 8.92595 26.2054 15.2591C26.2054 21.5922 21.0714 26.7262 14.7383 26.7262C8.52988 26.7262 3.47385 21.7925 3.27705 15.6319C3.80857 21.0432 8.37209 25.2712 13.9231 25.2712C19.8313 25.2712 24.6208 20.4816 24.6208 14.5734C24.6208 8.66519 19.8313 3.87565 13.9231 3.87565C13.6521 3.87565 13.3835 3.88572 13.1177 3.90551C13.6471 3.83062 14.1881 3.79188 14.7383 3.79188ZM23.93 14.5734C23.93 9.0467 19.4497 4.5665 13.9231 4.5665C13.4186 4.5665 12.9228 4.60383 12.4384 4.67587C12.6595 4.66004 12.8828 4.65198 13.1079 4.65198C18.2091 4.65198 22.3445 8.78736 22.3445 13.8886C22.3445 18.9898 18.2091 23.1252 13.1079 23.1252C8.32777 23.1252 4.39574 19.4941 3.91966 14.8396C4.0608 20.2432 8.48546 24.5803 13.9231 24.5803C19.4497 24.5803 23.93 20.1 23.93 14.5734ZM13.1079 5.34283C17.8276 5.34283 21.6536 9.16887 21.6536 13.8886C21.6536 18.6083 17.8276 22.4343 13.1079 22.4343C8.44827 22.4343 4.65967 18.7051 4.56399 14.0684C4.99443 17.9558 8.2905 20.9792 12.2927 20.9792C16.5875 20.9792 20.069 17.4977 20.069 13.2029C20.069 8.9082 16.5875 5.42659 12.2927 5.42659C12.1285 5.42659 11.9654 5.43168 11.8037 5.44172C12.2289 5.3766 12.6645 5.34283 13.1079 5.34283ZM19.3782 13.2029C19.3782 9.28972 16.206 6.11744 12.2927 6.11744C11.8998 6.11744 11.5143 6.14943 11.1387 6.21095C11.2506 6.20505 11.3632 6.20207 11.4767 6.20207C14.9649 6.20207 17.7927 9.02984 17.7927 12.5181C17.7927 16.0064 14.9649 18.8342 11.4767 18.8342C8.2512 18.8342 5.59045 16.4164 5.20781 13.2944C5.2568 17.1655 8.41006 20.2884 12.2927 20.2884C16.206 20.2884 19.3782 17.1162 19.3782 13.2029ZM11.4767 6.89291C14.5833 6.89291 17.1018 9.41136 17.1018 12.5181C17.1018 15.6249 14.5833 18.1433 11.4767 18.1433C8.36991 18.1433 5.85141 15.6249 5.85141 12.5181C5.85141 12.5107 5.85143 12.5032 5.85146 12.4958C6.17491 14.8633 8.20515 16.6874 10.6615 16.6874C13.3427 16.6874 15.5164 14.5138 15.5164 11.8325C15.5164 9.15113 13.3427 6.97755 10.6615 6.97755C10.6008 6.97755 10.5404 6.97866 10.4803 6.98086C10.8037 6.92307 11.1366 6.89291 11.4767 6.89291ZM14.8255 11.8325C14.8255 9.53273 12.9612 7.66839 10.6615 7.66839C8.36169 7.66839 6.49737 9.53273 6.49737 11.8325C6.49737 14.1322 8.36169 15.9965 10.6615 15.9965C12.9612 15.9965 14.8255 14.1322 14.8255 11.8325Z" fill="#151515"/>
</svg>
